<svg aria-hidden="true" style="position:absolute;width:0;height:0" xmlns="http://www.w3.org/2000/svg" overflow="hidden"><defs><symbol id="icon-sun" viewBox="0 0 32 32"><path d="M15.982 24.061c-4.455 0-8.079-3.624-8.079-8.079s3.624-8.079 8.079-8.079 8.079 3.624 8.079 8.079-3.624 8.079-8.079 8.079zm0-14.05c-3.293 0-5.971 2.679-5.971 5.971s2.679 5.971 5.971 5.971 5.971-2.679 5.971-5.971-2.679-5.971-5.971-5.971zm0-3.669a1.054 1.054 0 01-1.054-1.054V1.229a1.054 1.054 0 012.108 0v4.059c0 .582-.472 1.054-1.054 1.054zm0 25.446a1.054 1.054 0 01-1.054-1.054v-4.059a1.054 1.054 0 012.108 0v4.059c0 .582-.472 1.054-1.054 1.054zM5.289 17.036H1.23a1.054 1.054 0 010-2.108h4.059a1.054 1.054 0 010 2.108zm25.446 0h-4.059a1.054 1.054 0 010-2.108h4.059a1.054 1.054 0 010 2.108zm-7.192-7.561a1.054 1.054 0 01-.745-1.799l2.87-2.87a1.05 1.05 0 011.49 0 1.05 1.05 0 010 1.49l-2.87 2.87c-.19.191-.453.309-.744.309h-.001zM5.551 27.467h-.002c-.29 0-.553-.118-.743-.309a1.05 1.05 0 010-1.49l2.87-2.87a1.05 1.05 0 011.49 0 1.05 1.05 0 010 1.49l-2.87 2.87c-.19.191-.453.309-.744.309h-.001zm2.87-17.992h-.002c-.29 0-.553-.118-.744-.308l-2.87-2.87a1.054 1.054 0 011.491-1.49l2.87 2.87a1.054 1.054 0 01-.745 1.799zm17.992 17.992h-.001c-.291 0-.554-.118-.744-.309l-2.87-2.87a1.05 1.05 0 010-1.49 1.05 1.05 0 011.49 0l2.87 2.87a1.05 1.05 0 010 1.49c-.19.191-.453.309-.744.309h-.001z"/></symbol><symbol id="icon-moon" viewBox="0 0 32 32"><path d="M31.147 20.992a.348.348 0 00-.441.063 11.346 11.346 0 01-6.375 3.538c-3.008.549-6.052-.104-8.569-1.843s-4.206-4.353-4.756-7.362c-.55-3.009.104-6.052 1.843-8.569s4.353-4.206 7.362-4.756a11.305 11.305 0 011.764-.17.35.35 0 00.336-.29v-.002a.352.352 0 00-.218-.386l-.002-.001a15.783 15.783 0 00-8.478-.779C5.041 2.003-.657 10.252.91 18.824a15.7 15.7 0 006.563 10.16 15.69 15.69 0 008.948 2.805c.955 0 1.918-.087 2.876-.262 5.478-1.002 10.075-4.878 11.997-10.115a.352.352 0 00-.145-.42l-.002-.001z"/></symbol><symbol id="icon-youtube" viewBox="0 0 32 32"><path d="M13.273 19.94v-7.88L20.242 16l-6.969 3.94zM28.776 9.581a3.354 3.354 0 00-2.334-2.352l-.023-.006C24.339 6.666 16 6.666 16 6.666s-8.339 0-10.419.557A3.34 3.34 0 003.224 9.58c-.557 2.08-.557 6.419-.557 6.419s0 4.339.557 6.419a3.34 3.34 0 002.357 2.357c2.08.557 10.419.557 10.419.557s8.339 0 10.419-.557a3.354 3.354 0 002.352-2.334l.006-.023c.557-2.08.557-6.419.557-6.419s0-4.339-.557-6.419z"/></symbol><symbol id="icon-watchlist" viewBox="0 0 32 32"><path d="M17.455 4.364a2.917 2.917 0 012.9 2.692l.009.217v23.273l-10.182-4.364L0 30.546V7.273a2.917 2.917 0 012.692-2.9l.217-.009h14.545zm-5.819 5.818H8.727v4.364H4.363v2.909h4.364v4.364h2.909v-4.364H16v-2.909h-4.364v-4.364z"/></symbol><symbol id="icon-videos" viewBox="0 0 32 32"><path d="M4 8c-.733 0-1.333.6-1.333 1.333v17.333c0 1.467 1.2 2.667 2.667 2.667h17.333c.733 0 1.333-.6 1.333-1.333s-.6-1.333-1.333-1.333h-16c-.733 0-1.333-.6-1.333-1.333v-16c0-.733-.6-1.333-1.333-1.333zm22.667-5.333h-16A2.675 2.675 0 008 5.334v16c0 1.467 1.2 2.667 2.667 2.667h16c1.467 0 2.667-1.2 2.667-2.667v-16c0-1.467-1.2-2.667-2.667-2.667zM16 19.333v-12l7.293 5.467c.36.267.36.8 0 1.067L16 19.334z"/></symbol><symbol id="icon-twitter" viewBox="0 0 32 32"><path d="M11.053 26.581c10.063 0 15.567-8.173 15.567-15.261 0-.233-.005-.464-.016-.693a11.09 11.09 0 002.705-2.742l.024-.037c-.915.409-1.977.706-3.089.839l-.053.005a5.433 5.433 0 002.394-2.929l.011-.038a11.102 11.102 0 01-3.475 1.301 5.5 5.5 0 00-3.977-1.693h-.017.001c-3.021 0-5.472 2.403-5.472 5.364 0 .42.048.829.143 1.223A15.625 15.625 0 014.541 6.34l-.02-.024c-.466.77-.741 1.7-.741 2.694v.002a5.333 5.333 0 002.414 4.452l.02.012a5.501 5.501 0 01-2.506-.685l.028.014-.001.068c0 2.599 1.887 4.767 4.389 5.259a5.664 5.664 0 01-2.506.088l.035.006c.696 2.129 2.716 3.68 5.111 3.724a11.047 11.047 0 01-6.767 2.296h-.029.002-.029c-.45 0-.893-.026-1.33-.077l.053.005c2.371 1.512 5.261 2.409 8.361 2.409h.027-.001z"/></symbol><symbol id="icon-twitch" viewBox="0 0 32 32"><path d="M4.541 2.667h24.795v17.085l-7.292 7.293h-5.417l-3.543 3.541H9.335v-3.543H2.667V7.458l1.875-4.792zm22.295 15.834V5.168H6.833v17.501h5.627v3.541L16 22.669h6.667l4.168-4.168z"/><path d="M22.669 9.96v7.292h-2.5V9.959zm-6.668 0v7.292h-2.5V9.959z"/></symbol><symbol id="icon-tv-shows" viewBox="0 0 32 32"><path d="M28 4H4a2.675 2.675 0 00-2.667 2.667v16c0 1.467 1.2 2.667 2.667 2.667h6.667v1.333c0 .733.6 1.333 1.333 1.333h8c.733 0 1.333-.6 1.333-1.333v-1.333H28c1.467 0 2.653-1.2 2.653-2.667l.013-16A2.667 2.667 0 0027.999 4zm-1.333 18.667H5.334c-.733 0-1.333-.6-1.333-1.333V8.001c0-.733.6-1.333 1.333-1.333h21.333c.733 0 1.333.6 1.333 1.333v13.333c0 .733-.6 1.333-1.333 1.333z"/></symbol><symbol id="icon-success" viewBox="0 0 32 32"><path d="M12 21.6l-4.667-4.667c-.238-.241-.568-.39-.933-.39s-.695.149-.933.39c-.241.238-.39.568-.39.933s.149.695.39.933l5.587 5.587c.52.52 1.36.52 1.88 0l14.133-14.12c.241-.238.39-.568.39-.933s-.149-.695-.39-.933c-.238-.241-.568-.39-.933-.39s-.695.149-.933.39l-13.2 13.2z"/></symbol><symbol id="icon-star" viewBox="0 0 26.9 25.65"><path fill="var(--color1, #ffd401)" d="M17.591.536l4.292 10.043 10.879.973a.87.87 0 01.798.948.868.868 0 01-.299.586l-1.472 1.285c-4.005 1.385-9.257 2.221-15.008 2.221s-11.016-.836-15.008-2.221L.301 13.086a.884.884 0 01-.086-1.236l-.001.001a.86.86 0 01.611-.287l10.854-.973L15.971.536a.871.871 0 011.148-.462.857.857 0 01.474.462z"/></symbol><symbol id="icon-star-border" viewBox="0 0 32 32"><path d="M26.2 12.053l-6.453-.56-2.52-5.933c-.453-1.08-2-1.08-2.453 0l-2.52 5.947-6.44.547c-1.173.093-1.653 1.56-.76 2.333l4.893 4.24L8.48 24.92c-.267 1.147.973 2.053 1.987 1.44L16 23.027l5.533 3.347c1.013.613 2.253-.293 1.987-1.44l-1.467-6.307 4.893-4.24c.893-.773.427-2.24-.747-2.333zM16 20.533l-5.013 3.027 1.333-5.707-4.427-3.84 5.84-.507L16 8.133l2.28 5.387 5.84.507-4.427 3.84 1.333 5.707-5.027-3.04z"/></symbol><symbol id="icon-search" viewBox="0 0 32 32"><path d="M31.008 27.231l-7.58-6.447c-.784-.705-1.622-1.029-2.299-.998a11.954 11.954 0 002.87-7.787c0-6.627-5.373-12-12-12s-12 5.373-12 12 5.373 12 12 12c2.972 0 5.691-1.081 7.787-2.87-.031.677.293 1.515.998 2.299l6.447 7.58c1.104 1.226 2.907 1.33 4.007.23s.997-2.903-.23-4.007zM12 20a8 8 0 110-16 8 8 0 010 16z"/></symbol><symbol id="icon-plus" viewBox="0 0 32 32"><path d="M24 17.333h-6.667V24c0 .733-.6 1.333-1.333 1.333s-1.333-.6-1.333-1.333v-6.667H8c-.733 0-1.333-.6-1.333-1.333s.6-1.333 1.333-1.333h6.667V8c0-.733.6-1.333 1.333-1.333s1.333.6 1.333 1.333v6.667H24c.733 0 1.333.6 1.333 1.333s-.6 1.333-1.333 1.333z"/></symbol><symbol id="icon-play" viewBox="0 0 45 32"><path fill="var(--color3, #f00)" d="M44.347 5.16c-.52-1.953-1.66-3.607-3.613-4.127C37.194.086 22.667 0 22.667 0S8.14.087 4.6 1.033C2.647 1.553 1.513 3.206.987 5.16.04 8.7 0 16 0 16s.04 7.3.987 10.84c.52 1.953 1.66 3.607 3.613 4.127C8.14 31.914 22.667 32 22.667 32s14.527-.087 18.067-1.033c1.953-.52 3.093-2.173 3.613-4.127.947-3.54.987-10.84.987-10.84s-.04-7.3-.987-10.84z"/><path d="M30 16L18 9.333v13.333z"/></symbol><symbol id="icon-movies" viewBox="0 0 32 32"><path d="M24 5.333v1.333h-2.667V5.333C21.333 4.6 20.733 4 20 4h-8c-.733 0-1.333.6-1.333 1.333v1.333H8V5.333C8 4.6 7.4 4 6.667 4s-1.333.6-1.333 1.333v21.333c0 .733.6 1.333 1.333 1.333S8 27.399 8 26.666v-1.333h2.667v1.333c0 .733.6 1.333 1.333 1.333h8c.733 0 1.333-.6 1.333-1.333v-1.333H24v1.333c0 .733.6 1.333 1.333 1.333s1.333-.6 1.333-1.333V5.333c0-.733-.6-1.333-1.333-1.333S24 4.6 24 5.333zM10.667 22.667H8V20h2.667v2.667zm0-5.334H8v-2.667h2.667v2.667zm0-5.333H8V9.333h2.667V12zM24 22.667h-2.667V20H24v2.667zm0-5.334h-2.667v-2.667H24v2.667zM24 12h-2.667V9.333H24V12z"/></symbol><symbol id="icon-logout" viewBox="0 0 32 32"><path d="M20.191 27.701H3.751V4.299h16.441a.66.66 0 00.66-.66V1.208a.66.66 0 00-.66-.66H.661a.66.66 0 00-.66.66v29.584c0 .365.296.66.66.66h19.531a.66.66 0 00.66-.66v-2.43a.66.66 0 00-.66-.66z"/><path d="M31.806 15.533l-8.887-8.886a.678.678 0 00-.933 0l-2.108 2.109a.658.658 0 000 .934l4.014 4.015H6.516a.66.66 0 00-.66.66v3.272c0 .365.296.66.66.66h17.377l-4.014 4.015a.658.658 0 000 .934l2.108 2.109a.662.662 0 00.934 0l8.887-8.886a.66.66 0 00-.001-.934z"/></symbol><symbol id="icon-instagram" viewBox="0 0 32 32"><path d="M15.996 2.72c-3.62 0-4.075.015-5.496.08-1.419.064-2.387.289-3.235.617a6.576 6.576 0 00-2.361 1.534l-.001.001a6.524 6.524 0 00-1.522 2.311l-.015.045c-.329.847-.555 1.813-.62 3.229-.065 1.419-.08 1.872-.08 5.485s.015 4.065.08 5.484c.065 1.416.291 2.383.62 3.229a6.57 6.57 0 001.536 2.355l.001.001a6.544 6.544 0 002.315 1.518l.045.015c.848.331 1.817.555 3.236.62 1.421.064 1.876.08 5.496.08s4.073-.016 5.496-.08c1.419-.065 2.387-.289 3.235-.619a6.553 6.553 0 002.359-1.533l.001-.001a6.528 6.528 0 001.524-2.313l.015-.045c.329-.847.555-1.813.62-3.229.064-1.419.08-1.872.08-5.484 0-3.613-.016-4.067-.08-5.485-.065-1.416-.291-2.383-.62-3.229a6.57 6.57 0 00-1.536-2.355l-.001-.001a6.544 6.544 0 00-2.315-1.518l-.045-.015c-.849-.329-1.817-.555-3.236-.619-1.423-.065-1.876-.08-5.496-.08zm0 2.396c3.56 0 3.98.013 5.387.077 1.299.06 2.004.276 2.475.459a4.128 4.128 0 011.533.995c.465.467.755.909.996 1.529.183.469.4 1.173.459 2.471.064 1.403.077 1.824.077 5.376s-.013 3.973-.077 5.375c-.059 1.297-.276 2.001-.459 2.471a4.144 4.144 0 01-.996 1.528l-.001.001a4.128 4.128 0 01-1.533.995c-.469.183-1.173.4-2.475.459-1.405.064-1.827.077-5.387.077-3.559 0-3.98-.013-5.385-.077-1.299-.059-2.005-.276-2.475-.459a4.151 4.151 0 01-1.532-.994l-.001-.001a4.137 4.137 0 01-.987-1.501l-.009-.028c-.183-.469-.4-1.173-.459-2.471-.065-1.403-.079-1.823-.079-5.375s.013-3.973.079-5.376c.059-1.297.276-2.001.459-2.471.226-.6.566-1.111.996-1.528l.001-.001a4.14 4.14 0 011.532-.995c.469-.183 1.176-.4 2.475-.459 1.405-.064 1.827-.077 5.387-.077z"/><path d="M15.996 20.456h-.004a4.438 4.438 0 01-4.439-4.433 4.439 4.439 0 014.439-4.435H16a4.44 4.44 0 014.439 4.434A4.438 4.438 0 0116 20.455h-.004zm0-11.265h-.008a6.837 6.837 0 00-6.837 6.832 6.838 6.838 0 006.837 6.831h.015a6.836 6.836 0 006.837-6.83 6.837 6.837 0 00-6.837-6.832h-.007zm8.715-.271a1.598 1.598 0 11-3.193-.001 1.598 1.598 0 013.192.001v.001z"/></symbol><symbol id="icon-images" viewBox="0 0 32 32"><path d="M29.333 21.333v-16c0-1.467-1.2-2.667-2.667-2.667h-16a2.675 2.675 0 00-2.667 2.667v16c0 1.467 1.2 2.667 2.667 2.667h16c1.467 0 2.667-1.2 2.667-2.667zM15.2 16.707l2.173 2.907 3.44-4.293a.666.666 0 011.039-.001l.001.001 3.947 4.933a.664.664 0 01-.52 1.08H12a.667.667 0 01-.532-1.069l-.001.002 2.667-3.56a.677.677 0 011.067 0zM2.667 9.333v17.333c0 1.467 1.2 2.667 2.667 2.667h17.333c.733 0 1.333-.6 1.333-1.333s-.6-1.333-1.333-1.333h-16c-.733 0-1.333-.6-1.333-1.333v-16c0-.733-.6-1.333-1.333-1.333s-1.333.6-1.333 1.333z"/></symbol><symbol id="icon-image-not-found" viewBox="0 0 30 32"><path stroke-miterlimit="2.613" stroke-width=".778" d="M24.154 20.619a5.66 5.66 0 11-.001 11.319 5.66 5.66 0 01.001-11.319zM2.096.065h24.712c.563 0 1.066.231 1.434.597.368.367.596.874.597 1.434v18.158a7.416 7.416 0 00-2.087-1.146l-.052-.016V2.589a.345.345 0 00-.119-.272.406.406 0 00-.272-.119H2.58a.348.348 0 00-.272.119.402.402 0 00-.119.272v18.16h.008l8.292-7.939a.814.814 0 011.152.06c.008.008.008.018.018.018l6.972 8.248a7.506 7.506 0 00-1.976 5.087v.01-.001c0 .853.143 1.673.402 2.438H2.1c-.563 0-1.066-.231-1.434-.597s-.597-.879-.597-1.434V2.096C.069 1.533.3 1.03.666.662S1.545.065 2.1.065zM19.188 20.58l.962-5.911a.818.818 0 011.383-.451l4.435 4.661a7.546 7.546 0 00-1.758-.205h-.02c-1.924 0-3.68.723-5.009 1.913l.007-.006zm2.074-15.862c.812 0 1.554.332 2.083.861.532.53.861 1.264.861 2.074v.009c0 .812-.332 1.554-.861 2.083a2.919 2.919 0 01-2.074.861h-.009a2.947 2.947 0 01-2.083-.861 2.919 2.919 0 01-.861-2.074v-.009c0-.812.332-1.554.861-2.083a2.932 2.932 0 012.083-.861zm.996 18.119l5.177 5.602a3.927 3.927 0 00-3.279-6.087 3.877 3.877 0 00-1.899.485zm3.792 6.881l-5.177-5.602a3.927 3.927 0 003.279 6.087 3.877 3.877 0 001.899-.485z"/></symbol><symbol id="icon-facebook" viewBox="0 0 32 32"><path d="M27.861 2.667H4.138c-.813 0-1.472.659-1.472 1.472v23.723c0 .813.659 1.472 1.472 1.472H16.91V19.007h-3.476v-4.024h3.476v-2.969c0-3.445 2.103-5.32 5.176-5.32 1.472 0 2.736.109 3.105.159v3.6H23.06c-1.672 0-1.995.793-1.995 1.96v2.569h3.985l-.52 4.024h-3.467v10.328h6.796c.813 0 1.472-.659 1.472-1.472V4.139c0-.813-.659-1.472-1.472-1.472z"/></symbol><symbol id="icon-error" viewBox="0 0 32 32"><path d="M30.441 25.391L17.979 4.216a2.288 2.288 0 00-3.957 0L1.56 25.391a2.332 2.332 0 00-.018 2.369 2.283 2.283 0 001.994 1.163h24.929c.831 0 1.575-.437 1.988-1.163a2.318 2.318 0 00-.012-2.369zM14.73 12.218h2.081v1.961l-.446 5.489h-1.19l-.446-5.489v-1.961zm1.828 10.674a1.05 1.05 0 01-.77.334h-.011.001c-.302 0-.562-.111-.78-.334a1.098 1.098 0 01-.327-.783v-.016.001a1.1 1.1 0 01.326-.798c.193-.206.467-.335.77-.335h.011-.001c.302 0 .562.111.78.335s.326.489.326.798a1.1 1.1 0 01-.326.798z"/></symbol><symbol id="icon-comunity" viewBox="0 0 32 32"><path d="M16 2.667C8.64 2.667 2.667 8.64 2.667 16S8.64 29.333 16 29.333 29.333 23.36 29.333 16 23.36 2.667 16 2.667zm-1.333 23.906C9.4 25.92 5.334 21.44 5.334 16c0-.827.107-1.613.28-2.387L12.001 20v1.333c0 1.467 1.2 2.667 2.667 2.667v2.573zm9.2-3.386a2.645 2.645 0 00-2.533-1.853h-1.333v-4c0-.733-.6-1.333-1.333-1.333h-8v-2.667h2.667c.733 0 1.333-.6 1.333-1.333V9.334h2.667c1.467 0 2.667-1.2 2.667-2.667V6.12c3.907 1.587 6.667 5.413 6.667 9.88 0 2.773-1.067 5.293-2.8 7.187z"/></symbol><symbol id="icon-celebrity" viewBox="0 0 32 32"><path d="M21.333 14.667c2.213 0 3.987-1.787 3.987-4s-1.773-4-3.987-4-4 1.787-4 4 1.787 4 4 4zm-10.666 0c2.213 0 3.987-1.787 3.987-4s-1.773-4-3.987-4-4 1.787-4 4 1.787 4 4 4zm0 2.666c-3.107 0-9.333 1.56-9.333 4.667v2c0 .733.6 1.333 1.333 1.333h16c.733 0 1.333-.6 1.333-1.333v-2c0-3.107-6.227-4.667-9.333-4.667zm10.666 0c-.387 0-.827.027-1.293.067.027.013.04.04.053.053 1.52 1.107 2.573 2.587 2.573 4.547v2c0 .467-.093.92-.24 1.333h6.907c.733 0 1.333-.6 1.333-1.333v-2c0-3.107-6.227-4.667-9.333-4.667z"/></symbol><symbol id="icon-burger" viewBox="0 0 32 32"><path d="M5.333 24h21.333c.733 0 1.333-.6 1.333-1.333s-.6-1.333-1.333-1.333H5.333c-.733 0-1.333.6-1.333 1.333S4.6 24 5.333 24zm0-6.667h21.333c.733 0 1.333-.6 1.333-1.333s-.6-1.333-1.333-1.333H5.333C4.6 14.667 4 15.267 4 16s.6 1.333 1.333 1.333zM4 9.333c0 .733.6 1.333 1.333 1.333h21.333c.733 0 1.333-.6 1.333-1.333S27.399 8 26.666 8H5.333C4.6 8 4 8.6 4 9.333z"/></symbol><symbol id="icon-big-star" viewBox="0 0 34 32"><path d="M11.626 10.466l-10.585.856c-1.015.127-1.413 1.408-.623 2.085l8.017 6.865-2.443 10.259-.012.054c-.194 1.003.904 1.779 1.793 1.238l9.018-5.49 9.065 5.518c.896.495 1.975-.308 1.734-1.32l-2.444-10.259 8.06-6.903c.746-.698.314-1.969-.723-2.052l-10.528-.85L17.892.734c-.408-.977-1.794-.977-2.202 0l-4.063 9.733z"/></symbol><symbol id="icon-arrow" viewBox="0 0 32 32"><path d="M12.387 8.947c-.241.24-.39.573-.39.94s.149.7.39.94L17.56 16l-5.173 5.173a1.329 1.329 0 101.88 1.88l6.12-6.12c.241-.24.39-.573.39-.94s-.149-.7-.39-.94l-6.12-6.12c-.507-.507-1.36-.507-1.88.013z"/></symbol></defs></svg>